<?xml version="1.0" encoding="UTF-8"?>
<svg id="Capa_1" data-name="Capa 1" xmlns="http://www.w3.org/2000/svg" viewBox="0 0 794.71 234.53">
  <defs>
    <style>
      .cls-1 {
        fill: #1e2146;
      }

      .cls-2 {
        fill: #f5b70a;
      }
    </style>
  </defs>
  <path class="cls-2" d="M309.6,137.75l-3.12,3.01c-1.4,1.35-.44,3.71,1.5,3.71h6.25c1.94,0,2.89-2.36,1.5-3.71l-3.12-3.01c-.84-.8-2.16-.8-2.99,0Z"/>
  <path class="cls-1" d="M109.05,155.26l-14.77-27.43c-.21-.39-.61-.63-1.05-.63h-.41c-.66,0-1.2.54-1.2,1.2v26.3c0,.66-.54,1.2-1.2,1.2h-19.24c-.66,0-1.2-.54-1.2-1.2v-75.4c0-.66.54-1.2,1.2-1.2h32.9c6.25,0,11.55,1.09,15.89,3.25,4.34,2.17,7.61,5.15,9.82,8.94,2.21,3.79,3.31,8.04,3.31,12.74,0,5.3-1.45,9.95-4.36,13.96-2.66,3.68-6.46,6.38-11.38,8.1-.71.25-1,1.09-.62,1.74l15.76,27.26c.46.8-.11,1.79-1.04,1.79h-21.38c-.44,0-.84-.24-1.05-.63ZM91.62,111.21c0,.66.54,1.2,1.2,1.2h9.51c2.94,0,5.15-.7,6.62-2.1,1.47-1.4,2.21-3.42,2.21-6.07,0-2.5-.75-4.47-2.26-5.9-1.51-1.43-3.7-2.15-6.57-2.15h-9.51c-.66,0-1.2.54-1.2,1.2v13.83Z"/>
  <path class="cls-1" d="M206.27,95.18v59.51c0,.66-.54,1.2-1.2,1.2h-19.35c-.66,0-1.2-.54-1.2-1.2v-4.21c0-1.09-1.32-1.6-2.07-.81-1.54,1.63-3.39,3.02-5.55,4.17-3.24,1.73-6.95,2.59-11.15,2.59-7.21,0-12.89-2.37-17.05-7.12-4.16-4.75-6.23-11.2-6.23-19.37v-34.78c0-.66.54-1.2,1.2-1.2h19.12c.66,0,1.2.54,1.2,1.2v32.02c0,3.53.94,6.31,2.81,8.33,1.88,2.02,4.36,3.03,7.45,3.03s5.66-1.01,7.5-3.03c1.84-2.02,2.76-4.8,2.76-8.33v-32.02c0-.66.54-1.2,1.2-1.2h19.35c.66,0,1.2.54,1.2,1.2Z"/>
  <path class="cls-1" d="M277.22,79.29v14.82c0,.66-.54,1.2-1.2,1.2h-18.35c-.66,0-1.2.54-1.2,1.2v58.19c0,.66-.54,1.2-1.2,1.2h-19.24c-.66,0-1.2-.54-1.2-1.2v-58.19c0-.66-.54-1.2-1.2-1.2h-18.13c-.66,0-1.2-.54-1.2-1.2v-14.82c0-.66.54-1.2,1.2-1.2h60.5c.66,0,1.2.54,1.2,1.2Z"/>
  <path class="cls-1" d="M448.63,79.29v75.4c0,.66-.54,1.2-1.2,1.2h-19.24c-.66,0-1.2-.54-1.2-1.2v-34.53c0-1.35-1.89-1.67-2.33-.39l-12.07,35.31c-.17.48-.62.81-1.13.81h-16.39c-.51,0-.97-.33-1.13-.81l-12.18-35.64c-.44-1.28-2.33-.96-2.33.39v34.86c0,.66-.54,1.2-1.2,1.2h-19.24c-.66,0-1.2-.54-1.2-1.2v-75.4c0-.66.54-1.2,1.2-1.2h24.13c.49,0,.94.3,1.12.76l18.11,46.85c.4,1.02,1.85,1.02,2.23,0l17.69-46.84c.18-.47.62-.77,1.12-.77h24.02c.66,0,1.2.54,1.2,1.2Z"/>
  <path class="cls-1" d="M518,116.88c-2.17,3.86-5.44,6.95-9.82,9.27-4.38,2.32-9.73,3.48-16.06,3.48h-9.51c-.66,0-1.2.54-1.2,1.2v23.87c0,.66-.54,1.2-1.2,1.2h-19.24c-.66,0-1.2-.54-1.2-1.2v-75.4c0-.66.54-1.2,1.2-1.2h31.13c6.25,0,11.57,1.1,15.94,3.31,4.38,2.21,7.67,5.26,9.88,9.16,2.21,3.9,3.31,8.39,3.31,13.46,0,4.71-1.09,8.99-3.25,12.85ZM499.18,104.02c0-5.66-3.05-8.5-9.16-8.5h-7.41c-.66,0-1.2.54-1.2,1.2v14.49c0,.66.54,1.2,1.2,1.2h7.41c6.11,0,9.16-2.8,9.16-8.39Z"/>
  <path class="cls-1" d="M551.59,79.29v75.4c0,.66-.54,1.2-1.2,1.2h-19.24c-.66,0-1.2-.54-1.2-1.2v-75.4c0-.66.54-1.2,1.2-1.2h19.24c.66,0,1.2.54,1.2,1.2Z"/>
  <path class="cls-1" d="M566.11,96.36c3.2-6,7.74-10.67,13.63-14.01,5.89-3.35,12.65-5.02,20.3-5.02,9.71,0,17.88,2.59,24.5,7.78,6.25,4.9,10.4,11.45,12.46,19.65.19.75-.4,1.48-1.17,1.48h-21.04c-.45,0-.85-.26-1.06-.66-1.37-2.62-3.19-4.65-5.47-6.07-2.47-1.55-5.32-2.32-8.55-2.32-5,0-8.99,1.78-11.97,5.35-2.98,3.57-4.47,8.33-4.47,14.29s1.49,10.83,4.47,14.4c2.98,3.57,6.97,5.35,11.97,5.35,3.24,0,6.09-.77,8.55-2.32,2.28-1.43,4.1-3.45,5.47-6.07.21-.4.61-.66,1.06-.66h21.04c.77,0,1.36.73,1.17,1.48-2.06,8.21-6.21,14.76-12.46,19.65-6.62,5.19-14.79,7.78-24.5,7.78-7.65,0-14.42-1.67-20.3-5.02-5.89-3.35-10.43-8.02-13.63-14.01-3.2-5.99-4.8-12.85-4.8-20.58s1.6-14.47,4.8-20.47Z"/>
  <path class="cls-1" d="M664.81,151.53c-6.11-3.42-10.94-8.17-14.51-14.23-3.57-6.07-5.35-12.93-5.35-20.58s1.78-14.51,5.35-20.58c3.57-6.07,8.4-10.8,14.51-14.18,6.1-3.38,12.8-5.08,20.08-5.08s14.07,1.69,20.14,5.08c6.07,3.38,10.87,8.11,14.4,14.18,3.53,6.07,5.3,12.93,5.3,20.58s-1.77,14.51-5.3,20.58c-3.53,6.07-8.35,10.81-14.46,14.23-6.11,3.42-12.8,5.13-20.08,5.13s-13.98-1.71-20.08-5.13ZM697.97,131.17c3.2-3.6,4.8-8.42,4.8-14.46s-1.6-11.05-4.8-14.62c-3.2-3.57-7.56-5.35-13.08-5.35s-9.97,1.78-13.13,5.35c-3.16,3.57-4.75,8.44-4.75,14.62s1.58,10.94,4.75,14.51c3.16,3.57,7.54,5.35,13.13,5.35s9.88-1.8,13.08-5.41Z"/>
  <path class="cls-1" d="M346.06,154.58l-24.71-67.78h0v-6.55c0-1.19-.97-2.16-2.16-2.16h-16.19c-1.19,0-2.16.97-2.16,2.16v6.83l-24.63,67.5c-.28.78.29,1.61,1.12,1.61h17.73c.5,0,.95-.31,1.12-.78l15.25-41.56,14.65,41.55c.17.48.62.8,1.13.8h17.72c.83,0,1.41-.83,1.12-1.61Z"/>
</svg>